Coordinates
version=1
nRows=16
nColumns=38
inDegrees=no

Units are S.I. units (second, meters, Newtons, ...)
If the header above contains a line with 'inDegrees', this indicates whether rotational values are in degrees (yes) or radians (no).

endheader
time	pelvis_tilt	pelvis_list	pelvis_rotation	pelvis_tx	pelvis_ty	pelvis_tz	hip_flexion_r	hip_adduction_r	hip_rotation_r	knee_angle_r	ankle_angle_r	subtalar_angle_r	mtp_angle_r	hip_flexion_l	hip_adduction_l	hip_rotation_l	knee_angle_l	ankle_angle_l	subtalar_angle_l	mtp_angle_l	lumbar_extension	lumbar_bending	lumbar_rotation	arm_flex_r	arm_add_r	arm_rot_r	elbow_flex_r	pro_sup_r	wrist_flex_r	wrist_dev_r	arm_flex_l	arm_add_l	arm_rot_l	elbow_flex_l	pro_sup_l	wrist_flex_l	wrist_dev_l
1.85	-0.278829	1.43542	-1.17761	0.619634	-0.525342	1.04613	0.00646348	0.035745	-0.333653	0.320734	-0.0161952	0	0	0.0539734	-0.196699	-0.230418	1.2492	-0.120318	0	0	-0.559148	0.155947	-0.0684624	-0.0864109	-0.407996	0.277202	0.854863	0.864488	0	0	-0.0145842	-0.531995	0.216736	0.93184	1.24672	0	0
1.86	-0.253312	1.43447	-1.21243	0.618136	-0.537841	1.04868	-0.0168658	0.0376556	-0.329775	0.304353	-0.0197252	0	0	0.0706069	-0.191328	-0.233569	1.24253	-0.105966	0	0	-0.5627	0.148719	-0.0627601	-0.086357	-0.40937	0.275815	0.856192	0.865395	0	0	-0.0232549	-0.52651	0.20859	0.927722	1.24252	0	0
1.87	-0.225918	1.43566	-1.24844	0.616745	-0.550258	1.05077	-0.0454412	0.0376263	-0.312615	0.274318	-0.02196	0	0	0.089424	-0.184418	-0.234998	1.23217	-0.0990173	0	0	-0.563134	0.141066	-0.0571144	-0.0891629	-0.410592	0.27194	0.858936	0.867548	0	0	-0.0296276	-0.522422	0.206224	0.922234	1.23449	0	0
1.88	-0.280572	1.42161	-1.2006	0.616067	-0.561938	1.05571	-0.0657836	0.0688313	-0.321271	0.273126	-0.0300204	0	0	0.0953239	-0.195405	-0.235142	1.21054	-0.0931627	0	0	-0.582952	0.151715	-0.0438095	-0.0850344	-0.417216	0.269005	0.861956	0.871773	0	0	-0.0275237	-0.509443	0.197934	0.912209	1.23491	0	0
1.89	-0.258673	1.42467	-1.23079	0.614863	-0.574191	1.05733	-0.0826177	0.0679474	-0.3158	0.255829	-0.0384931	0	0	0.113882	-0.187907	-0.236646	1.18953	-0.0858407	0	0	-0.582055	0.142647	-0.0469661	-0.0759364	-0.42284	0.289704	0.858981	0.859373	0	0	-0.0456263	-0.502646	0.171446	0.913842	1.24052	0	0
1.9	-0.235424	1.42704	-1.2609	0.61382	-0.586454	1.05881	-0.10186	0.0670538	-0.312883	0.238253	-0.0435307	0	0	0.130591	-0.180094	-0.236764	1.16349	-0.0812103	0	0	-0.581357	0.135691	-0.0456275	-0.0769042	-0.425267	0.289486	0.861872	0.863123	0	0	-0.0539316	-0.498293	0.163536	0.909895	1.23738	0	0
1.91	-0.211493	1.42941	-1.29121	0.612921	-0.598661	1.06009	-0.120147	0.0655076	-0.310421	0.222887	-0.0436469	0	0	0.146079	-0.171149	-0.235452	1.13256	-0.077911	0	0	-0.5802	0.129706	-0.0410672	-0.0832184	-0.427958	0.281635	0.86837	0.866761	0	0	-0.0557521	-0.495745	0.168095	0.902357	1.22912	0	0
1.92	-0.191785	1.43154	-1.31695	0.612112	-0.610746	1.06124	-0.134547	0.0637742	-0.31431	0.21552	-0.0463568	0	0	0.160109	-0.162701	-0.234524	1.09641	-0.0725696	0	0	-0.579514	0.123816	-0.041429	-0.0827094	-0.431331	0.284176	0.871009	0.867543	0	0	-0.0639425	-0.491874	0.160179	0.898977	1.22717	0	0
1.93	-0.165629	1.43425	-1.34922	0.611347	-0.622781	1.06212	-0.151607	0.0609446	-0.311481	0.201296	-0.0502558	0	0	0.172519	-0.152869	-0.23476	1.05372	-0.0663473	0	0	-0.578096	0.117032	-0.0435506	-0.0812805	-0.434421	0.28702	0.873592	0.86938	0	0	-0.0729605	-0.487396	0.149732	0.895248	1.22577	0	0
1.94	-0.13974	1.43708	-1.38151	0.610589	-0.634887	1.06264	-0.168677	0.0577765	-0.30926	0.18754	-0.0529748	0	0	0.183268	-0.143425	-0.237146	1.00605	-0.0612892	0	0	-0.576476	0.110034	-0.0455936	-0.0802128	-0.437513	0.289394	0.876892	0.871881	0	0	-0.0823174	-0.482925	0.138583	0.892312	1.22523	0	0
1.95	-0.118724	1.43969	-1.40988	0.609825	-0.646917	1.06297	-0.184346	0.0548786	-0.30734	0.175892	-0.0558994	0	0	0.192381	-0.135163	-0.243341	0.953347	-0.057961	0	0	-0.575333	0.103415	-0.0467162	-0.0781948	-0.44051	0.291735	0.879478	0.87366	0	0	-0.0911056	-0.477709	0.126614	0.889188	1.22543	0	0
1.96	-0.104012	1.44197	-1.43368	0.608954	-0.658775	1.06312	-0.198446	0.0522057	-0.305588	0.166633	-0.0609361	0	0	0.199645	-0.128592	-0.25542	0.895322	-0.058631	0	0	-0.575614	0.0977424	-0.0424457	-0.0828601	-0.439693	0.275079	0.88611	0.894488	0	0	-0.0938784	-0.472555	0.122351	0.883039	1.22285	0	0
1.97	-0.0960898	1.44672	-1.4514	0.607981	-0.670698	1.0629	-0.208756	0.0494917	-0.305199	0.159249	-0.063508	0	0	0.207982	-0.122764	-0.271097	0.83221	-0.0669301	0	0	-0.572586	0.0888948	-0.0505648	-0.0619012	-0.449584	0.31732	0.877828	0.865763	0	0	-0.115139	-0.463453	0.0848317	0.887406	1.23836	0	0
1.98	-0.0860961	1.45042	-1.46996	0.607176	-0.682695	1.06249	-0.220331	0.0465761	-0.304334	0.152335	-0.0633724	0	0	0.213314	-0.116113	-0.288023	0.763474	-0.0778511	0	0	-0.570719	0.0830198	-0.0488903	-0.0589444	-0.453885	0.322108	0.87952	0.86715	0	0	-0.120319	-0.458785	0.0780492	0.882622	1.23745	0	0
1.99	-0.0766378	1.45346	-1.48712	0.606487	-0.694728	1.06185	-0.232435	0.0435281	-0.303773	0.146259	-0.0623933	0	0	0.215964	-0.108166	-0.304307	0.689007	-0.092346	0	0	-0.56982	0.077832	-0.0468749	-0.0569773	-0.458702	0.326143	0.882812	0.869554	0	0	-0.124202	-0.455098	0.0742365	0.878399	1.23549	0	0
2	-0.0694083	1.45651	-1.50174	0.605853	-0.706824	1.06094	-0.242881	0.0398394	-0.303655	0.145014	-0.0606495	0	0	0.216634	-0.0988003	-0.318202	0.609867	-0.109354	0	0	-0.568883	0.0732335	-0.0443793	-0.0564243	-0.463346	0.327174	0.887927	0.871892	0	0	-0.127067	-0.451854	0.0725074	0.874053	1.23295	0	0
